<?xml version="1.0" encoding="UTF-8" standalone="no"?>
<svg
   xmlns:dc="http://purl.org/dc/elements/1.1/"
   xmlns:cc="http://creativecommons.org/ns#"
   xmlns:rdf="http://www.w3.org/1999/02/22-rdf-syntax-ns#"
   xmlns:svg="http://www.w3.org/2000/svg"
   xmlns="http://www.w3.org/2000/svg"
   xmlns:sodipodi="http://sodipodi.sourceforge.net/DTD/sodipodi-0.dtd"
   xmlns:inkscape="http://www.inkscape.org/namespaces/inkscape"
   version="1.1"
   id="Layer_1"
   x="0px"
   y="0px"
   width="360"
   height="180"
   viewBox="0 0 360.00001 180.00001"
   enable-background="new 0 0 100 100"
   xml:space="preserve"
   inkscape:version="0.48.2 r9819"
   sodipodi:docname="imgee.svg"
   inkscape:export-filename="/Users/jace/Dropbox/Projects/HasGeek/imgee/imgee/static/img/logo.png"
   inkscape:export-xdpi="37.5"
   inkscape:export-ydpi="37.5"><metadata
   id="metadata15"><rdf:RDF><cc:Work
       rdf:about=""><dc:format>image/svg+xml</dc:format><dc:type
         rdf:resource="http://purl.org/dc/dcmitype/StillImage" /><dc:title></dc:title></cc:Work></rdf:RDF></metadata><defs
   id="defs13" /><sodipodi:namedview
   pagecolor="#ffffff"
   bordercolor="#666666"
   borderopacity="1"
   objecttolerance="10"
   gridtolerance="10"
   guidetolerance="10"
   inkscape:pageopacity="0"
   inkscape:pageshadow="2"
   inkscape:window-width="1280"
   inkscape:window-height="752"
   id="namedview11"
   showgrid="false"
   showguides="false"
   inkscape:guide-bbox="true"
   fit-margin-top="22"
   fit-margin-left="4"
   fit-margin-right="4"
   fit-margin-bottom="20"
   units="in"
   inkscape:zoom="2"
   inkscape:cx="213.22429"
   inkscape:cy="93.562772"
   inkscape:window-x="0"
   inkscape:window-y="0"
   inkscape:window-maximized="1"
   inkscape:current-layer="Layer_1"><sodipodi:guide
     orientation="0,1"
     position="178.52344,36.546875"
     id="guide3104" /><sodipodi:guide
     orientation="0,1"
     position="3.37533,148.6692"
     id="guide3106" /><sodipodi:guide
     orientation="0,1"
     position="28.375,20.132813"
     id="guide3143" /><sodipodi:guide
     orientation="0,1"
     position="152,132.5"
     id="guide3145" /></sodipodi:namedview>

<g
   transform="matrix(1.1210583,0,0,1.1210583,-273.4099,-90.233477)"
   id="layer1"
   inkscape:label="Layer 1"><text
   sodipodi:linespacing="125%"
   id="text3088"
   y="193.91148"
   x="192.25352"
   style="font-size:40px;font-style:normal;font-weight:normal;line-height:125%;letter-spacing:0px;word-spacing:0px;fill:#000000;fill-opacity:1;stroke:none;font-family:Bitstream Vera Sans"
   xml:space="preserve"><tspan
     y="193.91148"
     x="192.25352"
     id="tspan3090"
     sodipodi:role="line" /></text>



<text
   sodipodi:linespacing="125%"
   id="text3092"
   y="209.40443"
   x="180.98592"
   style="font-size:40px;font-style:normal;font-weight:normal;line-height:125%;letter-spacing:0px;word-spacing:0px;fill:#000000;fill-opacity:1;stroke:none;font-family:Bitstream Vera Sans"
   xml:space="preserve"><tspan
     y="209.40443"
     x="180.98592"
     id="tspan3094"
     sodipodi:role="line" /></text>



<g
   id="text3096"
   style="font-size:74.68148041px;font-style:normal;font-variant:normal;font-weight:normal;font-stretch:normal;line-height:125%;letter-spacing:0px;word-spacing:0px;fill:#eb5b1f;fill-opacity:1;stroke:none;font-family:MetaPlus;-inkscape-font-specification:MetaPlus"><path
     id="path85354"
     style="fill:#eb5b1f;fill-opacity:1;font-family:MetaPlus;-inkscape-font-specification:MetaPlus"
     d="m 247.45362,108.43737 10.23136,-2.38981 c 0.44807,2.09113 0.67212,5.20286 0.67213,9.33518 l 0,7.61751 c -10e-6,0.34856 -0.0249,0.89622 -0.0747,1.643 -0.0498,0.69706 -0.0747,1.21983 -0.0747,1.56831 2.88767,-2.73828 6.49727,-4.10744 10.82881,-4.10748 5.32725,4e-5 8.63813,1.81728 9.93264,5.45175 0.6472,1.84217 0.97082,4.20708 0.97086,7.09474 l 0,26.73597 -9.78327,0 0,-25.69043 c -3e-5,-3.48511 -1.29451,-5.22768 -3.88344,-5.22771 -2.68855,3e-5 -5.3273,1.17004 -7.91624,3.51003 l 0,27.40811 -10.15668,0 0,-44.21144 c 0,-4.08254 -0.24894,-6.99511 -0.74681,-8.73773"
     inkscape:connector-curvature="0" /><path
     id="path85356"
     style="fill:#eb5b1f;fill-opacity:1;font-family:MetaPlus;-inkscape-font-specification:MetaPlus"
     d="m 288.34873,127.70519 c 1.64299,-1.04551 3.70917,-2.09105 6.19856,-3.13662 3.63449,-1.4936 7.11962,-2.24041 10.45541,-2.24045 6.67152,4e-5 10.779,2.21559 12.32244,6.64665 0.49785,1.44388 0.72189,3.73411 0.67214,6.8707 l -0.22405,13.51735 c -3e-5,1.99151 0.19912,3.48514 0.59746,4.48089 0.49784,1.14512 1.49359,2.26534 2.98725,3.36066 l -5.30238,6.12388 c -2.58899,-1.09533 -4.38134,-2.63874 -5.37707,-4.63025 -2.73834,2.73832 -6.07411,4.10748 -10.00732,4.10748 -4.0826,0 -7.24411,-0.97086 -9.48454,-2.91257 -2.4396,-2.04129 -3.6594,-5.05344 -3.6594,-9.03646 0,-8.76261 6.12388,-13.14392 18.37165,-13.14394 0.94594,2e-5 1.69276,0.0249 2.24044,0.0747 l 0,-1.56831 c -2e-5,-2.04127 -0.24896,-3.43532 -0.74681,-4.18217 -0.59748,-0.99572 -1.84217,-1.49359 -3.73408,-1.49363 -3.08685,4e-5 -6.77113,1.44388 -11.05286,4.33153 l -4.25684,-7.16942 m 19.64123,16.95269 -0.44809,0 c -3.03707,2e-5 -5.15304,0.24896 -6.34793,0.74682 -1.99152,0.8464 -2.98727,2.53918 -2.98725,5.07834 -2e-5,1.39406 0.37339,2.58897 1.12022,3.58471 0.79658,0.94597 1.89191,1.41895 3.28598,1.41895 1.89191,0 3.63448,-0.87128 5.22771,-2.61385 l 0.14936,-8.21497"
     inkscape:connector-curvature="0" /><path
     id="path85358"
     style="fill:#eb5b1f;fill-opacity:1;font-family:MetaPlus;-inkscape-font-specification:MetaPlus"
     d="m 354.56319,125.68879 -3.28598,6.72133 c -3.63453,-1.84211 -6.77114,-2.76318 -9.40987,-2.76321 -3.23621,3e-5 -4.85431,1.24472 -4.8543,3.73407 -10e-6,1.74259 1.59319,3.03707 4.77962,3.88344 l 4.63025,1.1949 c 6.47237,1.6928 9.70856,5.3024 9.70859,10.82882 -3e-5,4.33153 -1.69281,7.69219 -5.07834,10.082 -3.03707,2.14086 -6.79603,3.2113 -11.2769,3.2113 -4.68005,0 -9.83307,-1.46874 -15.45907,-4.40621 l 3.58471,-7.31878 c 4.72982,2.88769 8.96177,4.33153 12.69586,4.33152 1.34424,1e-5 2.51425,-0.3734 3.51003,-1.12022 1.04551,-0.79659 1.56828,-1.86703 1.56831,-3.2113 -3e-5,-2.43959 -1.96664,-4.00789 -5.89984,-4.70494 l -4.48089,-0.82149 c -6.12389,-1.1451 -9.18582,-4.72981 -9.18582,-10.75414 0,-3.98298 1.49362,-7.1196 4.48089,-9.40986 2.73831,-2.04126 6.17365,-3.0619 10.30604,-3.06194 4.23193,4e-5 8.7875,1.19494 13.66671,3.58471"
     inkscape:connector-curvature="0" /></g><g
   id="text3100"
   style="font-size:74.68148041px;font-style:normal;font-variant:normal;font-weight:normal;font-stretch:normal;line-height:125%;letter-spacing:0px;word-spacing:0px;fill:#856a91;fill-opacity:1;stroke:none;font-family:MetaPlusBold;-inkscape-font-specification:MetaPlus"><path
     id="path85361"
     style="fill:#856a91;fill-opacity:1;font-family:MetaPlus;-inkscape-font-specification:MetaPlus"
     d="m 284.12221,168.05424 4.18216,6.34793 c -2.04133,1.89196 -4.38135,2.83793 -7.02005,2.8379 -0.5477,3e-5 -1.41899,-0.0746 -2.61386,-0.22405 1.4936,1.79239 2.24041,3.88347 2.24045,6.27325 -4e-5,3.58473 -1.49367,6.42262 -4.48089,8.51368 -2.68856,1.89195 -5.89986,2.83791 -9.63391,2.8379 -0.4979,1e-5 -0.99578,-0.0249 -1.49363,-0.0747 -2.63876,1.2447 -3.95814,2.29024 -3.95812,3.13662 -2e-5,0.59746 0.54765,0.89619 1.64299,0.89618 l 5.37707,0.0747 c 9.90771,0.14937 14.86158,4.00791 14.86161,11.57563 -3e-5,4.53067 -1.99154,7.91623 -5.97451,10.15668 -3.18644,1.79234 -7.24413,2.68852 -12.17309,2.68853 -4.4809,-1e-5 -8.28965,-0.69704 -11.42626,-2.09108 -4.13238,-1.89194 -6.19857,-4.82941 -6.19857,-8.81241 0,-1.39406 0.29873,-2.68854 0.89618,-3.88344 l 9.26051,0 c -0.29874,0.69703 -0.4481,1.51852 -0.44809,2.46449 -10e-6,3.13662 2.38979,4.70493 7.16942,4.70493 5.82513,0 8.7377,-1.71768 8.73773,-5.15302 -3e-5,-2.93747 -2.34004,-4.45599 -7.02006,-4.55557 l -4.25684,-0.0747 c -3.88345,-0.0498 -6.4973,-0.27383 -7.84156,-0.67213 -2.8379,-0.84639 -4.25685,-2.68853 -4.25684,-5.52643 -1e-5,-3.03704 2.34001,-5.17791 7.02006,-6.42261 -5.47665,-1.39404 -8.21497,-4.92896 -8.21496,-10.60477 -10e-6,-4.28171 1.66788,-7.56769 5.00365,-9.85796 2.93747,-2.04125 6.64664,-3.0619 11.12755,-3.06194 1.94169,4e-5 4.23192,0.32366 6.87069,0.97086 2.24042,0.5477 3.80873,0.82154 4.70493,0.8215 2.83787,4e-5 5.47661,-1.09529 7.91624,-3.28599 m -19.56655,8.81242 c -3.98302,3e-5 -5.97453,1.89196 -5.97451,5.67579 -2e-5,3.63452 1.96659,5.45177 5.89983,5.45175 4.08257,2e-5 6.12386,-1.81723 6.12388,-5.45175 -2e-5,-3.78383 -2.01642,-5.67576 -6.0492,-5.67579"
     inkscape:connector-curvature="0" /><path
     id="path85363"
     style="fill:#856a91;fill-opacity:1;font-family:MetaPlus;-inkscape-font-specification:MetaPlus"
     d="m 317.78372,198.22556 3.88344,5.97452 c -4.33156,3.53492 -9.13606,5.30238 -14.41353,5.30239 -5.72559,-10e-6 -10.20648,-1.89193 -13.44266,-5.6758 -3.08684,-3.5847 -4.63026,-8.28963 -4.63025,-14.1148 -1e-5,-5.82513 1.31936,-10.55495 3.95811,-14.18948 2.98725,-4.08255 7.26899,-6.12384 12.84522,-6.12388 10.7541,4e-5 16.13116,6.92052 16.1312,20.76145 l 0,2.31513 -22.10572,0 0,0.29872 c -10e-6,6.17368 2.68852,9.26051 8.0656,9.26051 3.43532,0 6.67152,-1.26958 9.70859,-3.80876 m -17.62483,-13.06926 11.57563,0 0,-0.44809 c -2e-5,-5.32725 -1.86706,-7.99088 -5.60111,-7.99091 -3.98303,3e-5 -5.97453,2.76324 -5.97452,8.28964 l 0,0.14936"
     inkscape:connector-curvature="0" /><path
     id="path85365"
     style="fill:#856a91;fill-opacity:1;font-family:MetaPlus;-inkscape-font-specification:MetaPlus"
     d="m 355.85378,198.22556 3.88343,5.97452 c -4.33155,3.53492 -9.13606,5.30238 -14.41352,5.30239 -5.7256,-10e-6 -10.20648,-1.89193 -13.44267,-5.6758 -3.08684,-3.5847 -4.63025,-8.28963 -4.63025,-14.1148 0,-5.82513 1.31937,-10.55495 3.95812,-14.18948 2.98725,-4.08255 7.26898,-6.12384 12.84521,-6.12388 10.75411,4e-5 16.13117,6.92052 16.1312,20.76145 l 0,2.31513 -22.10572,0 0,0.29872 c -1e-5,6.17368 2.68852,9.26051 8.0656,9.26051 3.43533,0 6.67152,-1.26958 9.7086,-3.80876 m -17.62483,-13.06926 11.57563,0 0,-0.44809 c -3e-5,-5.32725 -1.86706,-7.99088 -5.60112,-7.99091 -3.98302,3e-5 -5.97453,2.76324 -5.97451,8.28964 l 0,0.14936"
     inkscape:connector-curvature="0" /><path
     id="path85367"
     style="fill:#856a91;fill-opacity:1;font-family:MetaPlus;-inkscape-font-specification:MetaPlus"
     d="m 388.02399,170.22001 12.02372,0 -12.17308,15.98183 15.01098,22.25508 -11.79968,0 -12.84521,-21.65762 9.78327,-16.57929 m -20.68677,-14.78694 10.082,-2.46449 c 0.39829,2.53923 0.59744,6.6716 0.59745,12.39713 l 0,43.09121 -10.00731,0 0,-43.09121 c -1e-5,-3.63445 -0.22405,-6.94533 -0.67214,-9.93264"
     inkscape:connector-curvature="0" /></g><flowRoot
   style="font-size:72px;font-style:normal;font-variant:normal;font-weight:bold;font-stretch:normal;text-align:start;line-height:125%;letter-spacing:0px;word-spacing:0px;writing-mode:lr-tb;text-anchor:start;fill:#000000;fill-opacity:1;stroke:none;font-family:Museo;-inkscape-font-specification:Museo Bold"
   id="flowRoot3023"
   xml:space="preserve"><flowRegion
     id="flowRegion3025"><rect
       y="84.01487"
       x="206.85228"
       height="193.45511"
       width="216.49823"
       id="rect3027" /></flowRegion><flowPara
     id="flowPara3029" /></flowRoot></g><path
   id="path3091"
   d="m 303.19728,143.45299 -103.59175,0 c -4.82596,0 -7.97647,-3.38802 -7.97647,-7.49852 l 0,-79.762686 c 0,-4.944658 3.03322,-8.691781 7.97647,-8.691781 l 67.63379,0 0,11.82119 -63.79759,0 0,72.416457 96.57828,0 0,-32.52297 11.86764,-0.007 0,36.74693 c -0.001,4.1105 -3.98609,7.49852 -8.69037,7.49852 l 0,0 z m -87.88785,-22.85476 33.27339,-31.961417 14.95554,13.997017 16.07159,-21.139296 7.88628,15.081473 0.0567,24.022223 -72.2412,0 0,0 z m 16.47069,-32.194637 c -4.54259,0 -8.2268,-3.684163 -8.2268,-8.229647 0,-4.542625 3.68421,-8.226787 8.2268,-8.226787 4.54551,0 8.22961,3.684162 8.22961,8.226787 0,4.545484 -3.6841,8.229647 -8.22961,8.229647 z m 80.15183,-34.211809 0,33.525051 -11.91194,0 0,-33.525051 -22.06856,0 27.40629,-29.407726 27.40631,29.407726 -20.83333,0 2.9e-4,0 z"
   inkscape:connector-curvature="0"
   style="fill:#f0a40c;fill-opacity:1"
   sodipodi:nodetypes="csssscccccccccccccccccccccsssccccccccccc" /></svg>
