<?xml version="1.0" encoding="utf-8"?>
<!-- Generator: Adobe Illustrator 16.0.0, SVG Export Plug-In . SVG Version: 6.00 Build 0)  -->
<svg version="1.2" baseProfile="tiny" id="Layer_1" xmlns="http://www.w3.org/2000/svg" xmlns:xlink="http://www.w3.org/1999/xlink"
	 x="0px" y="0px" width="1000px" height="1000.002px" viewBox="0 0 1000 1000.002" xml:space="preserve">
<rect x="-0.363" y="0.365" fill="#FFFFFF" width="1000" height="1000"/>
<g>
	<path fill="#444444" d="M260.254,419.741c0,3.158-0.521,6.006-1.562,8.545c-1.042,2.539-2.531,4.704-4.468,6.494
		c-1.938,1.791-4.313,3.174-7.129,4.15c-2.816,0.977-6.177,1.465-10.083,1.465h-7.178v22.754c0,0.261-0.073,0.488-0.22,0.684
		s-0.375,0.35-0.684,0.464c-0.31,0.114-0.732,0.211-1.27,0.293c-0.537,0.081-1.213,0.122-2.026,0.122
		c-0.814,0-1.489-0.041-2.026-0.122c-0.537-0.082-0.969-0.179-1.294-0.293c-0.326-0.114-0.554-0.269-0.684-0.464
		c-0.131-0.195-0.195-0.423-0.195-0.684v-58.301c0-1.302,0.342-2.229,1.025-2.783c0.684-0.553,1.448-0.83,2.295-0.83h13.525
		c1.367,0,2.677,0.057,3.931,0.171c1.253,0.114,2.734,0.358,4.443,0.732c1.709,0.375,3.45,1.074,5.225,2.1
		c1.773,1.025,3.279,2.287,4.517,3.784c1.236,1.498,2.188,3.231,2.856,5.2C259.92,415.192,260.254,417.365,260.254,419.741z
		 M251.416,420.425c0-2.571-0.48-4.72-1.44-6.445c-0.961-1.725-2.148-3.011-3.564-3.857c-1.416-0.846-2.881-1.383-4.395-1.611
		c-1.514-0.228-2.987-0.342-4.419-0.342h-7.764v25.342h7.568c2.539,0,4.646-0.325,6.323-0.977c1.676-0.651,3.084-1.554,4.224-2.71
		c1.139-1.155,2.002-2.539,2.588-4.15S251.416,422.313,251.416,420.425z"/>
	<path fill="#444444" d="M315.234,463.149c0,0.261-0.049,0.488-0.146,0.684s-0.31,0.358-0.635,0.488
		c-0.326,0.13-0.781,0.228-1.367,0.293c-0.586,0.065-1.367,0.098-2.344,0.098c-0.847,0-1.538-0.033-2.075-0.098
		c-0.537-0.065-0.969-0.171-1.294-0.317c-0.326-0.146-0.578-0.35-0.757-0.61c-0.18-0.26-0.334-0.586-0.464-0.977l-5.811-14.893
		c-0.684-1.692-1.392-3.247-2.124-4.663s-1.604-2.637-2.612-3.662c-1.01-1.025-2.197-1.823-3.564-2.393
		c-1.367-0.569-3.012-0.854-4.932-0.854h-5.615v26.904c0,0.261-0.073,0.488-0.22,0.684s-0.375,0.35-0.684,0.464
		c-0.31,0.114-0.732,0.211-1.27,0.293c-0.537,0.081-1.213,0.122-2.026,0.122c-0.814,0-1.489-0.041-2.026-0.122
		c-0.537-0.082-0.969-0.179-1.294-0.293c-0.326-0.114-0.554-0.269-0.684-0.464c-0.131-0.195-0.195-0.423-0.195-0.684v-58.496
		c0-1.27,0.333-2.156,1.001-2.661c0.667-0.504,1.375-0.757,2.124-0.757h13.428c1.595,0,2.921,0.041,3.979,0.122
		c1.058,0.082,2.01,0.171,2.856,0.269c2.441,0.423,4.598,1.091,6.47,2.002c1.871,0.912,3.442,2.067,4.712,3.467
		c1.27,1.4,2.222,3.003,2.856,4.81s0.952,3.801,0.952,5.981c0,2.116-0.285,4.012-0.854,5.688c-0.57,1.677-1.392,3.158-2.466,4.443
		c-1.074,1.286-2.36,2.401-3.857,3.345c-1.498,0.944-3.174,1.742-5.029,2.393c1.041,0.456,1.985,1.034,2.832,1.733
		c0.846,0.7,1.636,1.538,2.368,2.515s1.424,2.1,2.075,3.369c0.65,1.27,1.302,2.702,1.953,4.297l5.664,13.916
		c0.455,1.172,0.748,1.994,0.879,2.466C315.169,462.523,315.234,462.889,315.234,463.149z M302.588,418.765
		c0-2.474-0.554-4.565-1.66-6.274c-1.107-1.709-2.963-2.938-5.566-3.687c-0.814-0.228-1.733-0.391-2.759-0.488
		s-2.368-0.146-4.028-0.146h-7.08v21.289h8.203c2.213,0,4.126-0.269,5.737-0.806s2.954-1.286,4.028-2.246
		c1.074-0.96,1.863-2.091,2.368-3.394C302.335,421.711,302.588,420.295,302.588,418.765z"/>
	<path fill="#444444" d="M362.549,460.952c0,0.586-0.033,1.099-0.098,1.538c-0.065,0.439-0.18,0.806-0.342,1.099
		c-0.163,0.293-0.351,0.505-0.562,0.635c-0.212,0.13-0.448,0.195-0.708,0.195h-30.322c-0.749,0-1.457-0.252-2.124-0.757
		c-0.668-0.504-1.001-1.392-1.001-2.661v-56.348c0-1.27,0.333-2.156,1.001-2.661c0.667-0.504,1.375-0.757,2.124-0.757h29.98
		c0.26,0,0.496,0.065,0.708,0.195c0.211,0.13,0.382,0.342,0.513,0.635c0.13,0.293,0.235,0.659,0.317,1.099
		c0.081,0.439,0.122,0.985,0.122,1.636c0,0.586-0.041,1.099-0.122,1.538c-0.082,0.439-0.188,0.798-0.317,1.074
		c-0.131,0.277-0.302,0.48-0.513,0.61c-0.212,0.13-0.448,0.195-0.708,0.195h-24.707v19.824h21.191c0.26,0,0.496,0.073,0.708,0.22
		c0.211,0.146,0.391,0.35,0.537,0.61c0.146,0.261,0.252,0.619,0.317,1.074c0.064,0.456,0.098,0.993,0.098,1.611
		c0,0.586-0.033,1.091-0.098,1.514c-0.065,0.423-0.171,0.765-0.317,1.025c-0.146,0.261-0.326,0.448-0.537,0.562
		c-0.212,0.114-0.448,0.171-0.708,0.171h-21.191v22.607h25.049c0.26,0,0.496,0.065,0.708,0.195c0.211,0.13,0.398,0.334,0.562,0.61
		c0.162,0.277,0.276,0.635,0.342,1.074C362.516,459.756,362.549,460.301,362.549,460.952z"/>
	<path fill="#444444" d="M401.758,462.954c-0.131,0.358-0.31,0.651-0.537,0.879c-0.229,0.228-0.546,0.407-0.952,0.537
		c-0.407,0.13-0.928,0.22-1.562,0.269s-1.425,0.073-2.368,0.073c-0.717,0-1.343-0.008-1.88-0.024
		c-0.537-0.017-1.001-0.057-1.392-0.122c-0.391-0.065-0.725-0.139-1.001-0.22c-0.277-0.081-0.513-0.187-0.708-0.317
		c-0.195-0.13-0.351-0.285-0.464-0.464c-0.114-0.179-0.22-0.398-0.317-0.659l-20.654-58.691c-0.261-0.716-0.399-1.294-0.415-1.733
		c-0.017-0.439,0.122-0.773,0.415-1.001c0.293-0.228,0.765-0.374,1.416-0.439c0.65-0.065,1.529-0.098,2.637-0.098
		c0.911,0,1.636,0.024,2.173,0.073s0.952,0.139,1.245,0.269c0.293,0.13,0.513,0.301,0.659,0.513c0.146,0.212,0.284,0.48,0.415,0.806
		l18.115,53.174h0.049l17.627-53.076c0.098-0.358,0.211-0.651,0.342-0.879c0.13-0.228,0.357-0.407,0.684-0.537
		c0.325-0.13,0.781-0.22,1.367-0.269s1.367-0.073,2.344-0.073c1.009,0,1.807,0.041,2.393,0.122c0.586,0.082,0.984,0.236,1.196,0.464
		c0.211,0.228,0.293,0.562,0.244,1.001s-0.204,1.018-0.464,1.733L401.758,462.954z"/>
	<path fill="#444444" d="M441.357,463.149c0,0.261-0.065,0.488-0.195,0.684c-0.131,0.195-0.358,0.35-0.684,0.464
		c-0.326,0.114-0.757,0.211-1.294,0.293c-0.537,0.081-1.213,0.122-2.026,0.122c-0.781,0-1.449-0.041-2.002-0.122
		c-0.554-0.082-0.993-0.179-1.318-0.293c-0.326-0.114-0.554-0.269-0.684-0.464c-0.131-0.195-0.195-0.423-0.195-0.684v-60.645
		c0-0.26,0.073-0.488,0.22-0.684s0.391-0.35,0.732-0.464c0.342-0.114,0.781-0.211,1.318-0.293c0.537-0.081,1.18-0.122,1.929-0.122
		c0.813,0,1.489,0.041,2.026,0.122c0.537,0.082,0.968,0.179,1.294,0.293c0.325,0.114,0.553,0.269,0.684,0.464
		c0.13,0.195,0.195,0.423,0.195,0.684V463.149z"/>
	<path fill="#444444" d="M493.311,460.952c0,0.586-0.033,1.099-0.098,1.538c-0.065,0.439-0.18,0.806-0.342,1.099
		c-0.163,0.293-0.351,0.505-0.562,0.635c-0.212,0.13-0.448,0.195-0.708,0.195h-30.322c-0.749,0-1.457-0.252-2.124-0.757
		c-0.668-0.504-1.001-1.392-1.001-2.661v-56.348c0-1.27,0.333-2.156,1.001-2.661c0.667-0.504,1.375-0.757,2.124-0.757h29.98
		c0.26,0,0.496,0.065,0.708,0.195c0.211,0.13,0.382,0.342,0.513,0.635c0.13,0.293,0.235,0.659,0.317,1.099
		c0.081,0.439,0.122,0.985,0.122,1.636c0,0.586-0.041,1.099-0.122,1.538c-0.082,0.439-0.188,0.798-0.317,1.074
		c-0.131,0.277-0.302,0.48-0.513,0.61c-0.212,0.13-0.448,0.195-0.708,0.195h-24.707v19.824h21.191c0.26,0,0.496,0.073,0.708,0.22
		c0.211,0.146,0.391,0.35,0.537,0.61c0.146,0.261,0.252,0.619,0.317,1.074c0.064,0.456,0.098,0.993,0.098,1.611
		c0,0.586-0.033,1.091-0.098,1.514c-0.065,0.423-0.171,0.765-0.317,1.025c-0.146,0.261-0.326,0.448-0.537,0.562
		c-0.212,0.114-0.448,0.171-0.708,0.171h-21.191v22.607h25.049c0.26,0,0.496,0.065,0.708,0.195c0.211,0.13,0.398,0.334,0.562,0.61
		c0.162,0.277,0.276,0.635,0.342,1.074C493.277,459.756,493.311,460.301,493.311,460.952z"/>
	<path fill="#444444" d="M567.48,462.563c-0.131,0.456-0.326,0.822-0.586,1.099c-0.261,0.277-0.619,0.488-1.074,0.635
		c-0.456,0.146-1.018,0.252-1.685,0.317c-0.668,0.065-1.489,0.098-2.466,0.098c-1.01,0-1.864-0.033-2.563-0.098
		c-0.7-0.065-1.278-0.171-1.733-0.317c-0.456-0.146-0.798-0.358-1.025-0.635c-0.229-0.276-0.407-0.643-0.537-1.099l-13.232-47.705
		h-0.098l-12.207,47.705c-0.098,0.456-0.261,0.822-0.488,1.099c-0.229,0.277-0.554,0.488-0.977,0.635
		c-0.424,0.146-0.969,0.252-1.636,0.317c-0.668,0.065-1.522,0.098-2.563,0.098c-1.074,0-1.97-0.033-2.686-0.098
		c-0.717-0.065-1.303-0.171-1.758-0.317c-0.456-0.146-0.806-0.358-1.05-0.635c-0.244-0.276-0.415-0.643-0.513-1.099l-16.699-58.35
		c-0.195-0.749-0.302-1.334-0.317-1.758c-0.017-0.423,0.113-0.749,0.391-0.977c0.276-0.228,0.724-0.374,1.343-0.439
		c0.618-0.065,1.448-0.098,2.49-0.098c1.009,0,1.807,0.024,2.393,0.073s1.033,0.139,1.343,0.269c0.309,0.13,0.521,0.31,0.635,0.537
		c0.113,0.228,0.203,0.521,0.269,0.879l14.209,52.93h0.049l13.477-52.832c0.098-0.358,0.22-0.659,0.366-0.903
		s0.382-0.431,0.708-0.562c0.325-0.13,0.789-0.228,1.392-0.293c0.602-0.065,1.392-0.098,2.368-0.098
		c0.911,0,1.636,0.033,2.173,0.098c0.537,0.065,0.968,0.163,1.294,0.293c0.325,0.13,0.562,0.317,0.708,0.562
		s0.269,0.545,0.366,0.903l14.502,52.832h0.098l13.916-52.881c0.098-0.325,0.195-0.61,0.293-0.854s0.301-0.431,0.61-0.562
		c0.309-0.13,0.748-0.228,1.318-0.293c0.569-0.065,1.326-0.098,2.271-0.098c0.977,0,1.749,0.041,2.319,0.122
		c0.569,0.082,0.984,0.236,1.245,0.464c0.26,0.228,0.382,0.554,0.366,0.977c-0.017,0.423-0.106,1.009-0.269,1.758L567.48,462.563z"
		/>
	<path fill="#444444" d="M666.309,460.952c0,0.651-0.109,1.205-0.328,1.66c-0.219,0.456-0.505,0.83-0.858,1.123
		s-0.749,0.505-1.187,0.635c-0.438,0.13-0.876,0.195-1.313,0.195h-2.777c-0.876,0-1.642-0.09-2.298-0.269
		c-0.657-0.179-1.279-0.504-1.868-0.977c-0.589-0.472-1.179-1.115-1.768-1.929c-0.589-0.813-1.215-1.855-1.876-3.125l-19.274-35.938
		c-1.008-1.855-2.023-3.8-3.047-5.835c-1.024-2.034-1.977-4.012-2.858-5.933h-0.098c0.064,2.344,0.113,4.736,0.146,7.178
		c0.032,2.441,0.049,4.867,0.049,7.275v38.135c0,0.228-0.068,0.448-0.206,0.659c-0.138,0.212-0.369,0.375-0.695,0.488
		c-0.327,0.114-0.756,0.211-1.288,0.293c-0.533,0.081-1.212,0.122-2.036,0.122s-1.503-0.041-2.035-0.122
		c-0.532-0.082-0.953-0.179-1.262-0.293c-0.31-0.114-0.532-0.276-0.67-0.488c-0.138-0.211-0.206-0.431-0.206-0.659v-58.301
		c0-1.302,0.369-2.229,1.108-2.783c0.739-0.553,1.546-0.83,2.419-0.83h4.134c0.973,0,1.788,0.082,2.443,0.244
		c0.655,0.163,1.243,0.432,1.764,0.806c0.521,0.375,1.024,0.896,1.513,1.562c0.486,0.667,0.997,1.506,1.533,2.515l14.817,27.734
		c0.913,1.693,1.793,3.345,2.644,4.956c0.849,1.611,1.667,3.198,2.453,4.761c0.787,1.562,1.565,3.101,2.336,4.614
		s1.534,3.036,2.289,4.565h0.049c-0.065-2.571-0.106-5.249-0.122-8.032c-0.017-2.783-0.024-5.46-0.024-8.032v-34.277
		c0-0.228,0.068-0.439,0.206-0.635s0.368-0.366,0.695-0.513c0.326-0.146,0.756-0.252,1.288-0.317
		c0.533-0.065,1.228-0.098,2.087-0.098c0.755,0,1.408,0.033,1.958,0.098c0.549,0.065,0.979,0.171,1.288,0.317
		s0.532,0.317,0.67,0.513s0.206,0.407,0.206,0.635V460.952z"/>
	<path fill="#444444" d="M736.035,432.095c0,5.111-0.603,9.717-1.807,13.818c-1.205,4.102-3.003,7.593-5.396,10.474
		s-5.396,5.095-9.009,6.641s-7.829,2.319-12.646,2.319c-4.753,0-8.862-0.708-12.329-2.124s-6.332-3.475-8.594-6.177
		c-2.263-2.702-3.947-6.055-5.054-10.059c-1.107-4.004-1.66-8.61-1.66-13.818c0-4.98,0.602-9.505,1.807-13.574
		c1.204-4.069,3.011-7.527,5.42-10.376c2.408-2.848,5.42-5.045,9.033-6.592c3.613-1.546,7.828-2.319,12.646-2.319
		c4.654,0,8.707,0.7,12.158,2.1c3.45,1.4,6.323,3.442,8.618,6.128s4.004,6.006,5.127,9.961S736.035,426.984,736.035,432.095z
		 M727.148,432.681c0-3.581-0.317-6.909-0.951-9.985s-1.69-5.745-3.17-8.008c-1.479-2.262-3.455-4.028-5.926-5.298
		c-2.47-1.27-5.526-1.904-9.167-1.904c-3.642,0-6.698,0.684-9.168,2.051c-2.472,1.367-4.479,3.19-6.022,5.469
		c-1.545,2.279-2.65,4.94-3.317,7.983c-0.666,3.044-0.999,6.242-0.999,9.595c0,3.711,0.309,7.129,0.926,10.254
		c0.618,3.125,1.658,5.819,3.122,8.081c1.463,2.263,3.421,4.021,5.876,5.273c2.455,1.253,5.535,1.88,9.241,1.88
		c3.674,0,6.762-0.684,9.266-2.051s4.52-3.214,6.047-5.542c1.528-2.327,2.617-5.021,3.268-8.081
		C726.822,439.338,727.148,436.099,727.148,432.681z"/>
	<path fill="#444444" d="M786.23,404.849c0,0.619-0.033,1.156-0.098,1.611c-0.065,0.456-0.171,0.822-0.317,1.099
		c-0.146,0.277-0.326,0.48-0.537,0.61c-0.212,0.13-0.448,0.195-0.708,0.195h-17.773v54.785c0,0.261-0.065,0.488-0.195,0.684
		c-0.131,0.195-0.358,0.35-0.684,0.464c-0.326,0.114-0.757,0.211-1.294,0.293c-0.537,0.081-1.213,0.122-2.026,0.122
		c-0.781,0-1.449-0.041-2.002-0.122c-0.554-0.082-0.993-0.179-1.318-0.293c-0.326-0.114-0.554-0.269-0.684-0.464
		c-0.131-0.195-0.195-0.423-0.195-0.684v-54.785h-17.773c-0.261,0-0.497-0.065-0.708-0.195c-0.212-0.13-0.383-0.333-0.513-0.61
		c-0.131-0.276-0.236-0.643-0.317-1.099c-0.082-0.456-0.122-0.993-0.122-1.611c0-0.618,0.04-1.164,0.122-1.636
		c0.081-0.472,0.187-0.854,0.317-1.147c0.13-0.293,0.301-0.504,0.513-0.635c0.211-0.13,0.447-0.195,0.708-0.195h43.945
		c0.26,0,0.496,0.065,0.708,0.195c0.211,0.13,0.391,0.342,0.537,0.635s0.252,0.676,0.317,1.147
		C786.197,403.685,786.23,404.23,786.23,404.849z"/>
	<path fill="#444444" d="M338.818,581.44c0.26,0.716,0.398,1.294,0.415,1.733c0.016,0.439-0.106,0.773-0.366,1.001
		c-0.261,0.228-0.692,0.374-1.294,0.439c-0.603,0.065-1.408,0.098-2.417,0.098c-1.01,0-1.815-0.024-2.417-0.073
		c-0.603-0.049-1.059-0.13-1.367-0.244c-0.31-0.114-0.537-0.269-0.684-0.464s-0.285-0.439-0.415-0.732l-5.42-15.381h-26.27
		l-5.176,15.186c-0.098,0.293-0.229,0.545-0.391,0.757c-0.163,0.212-0.399,0.391-0.708,0.537c-0.31,0.146-0.749,0.252-1.318,0.317
		c-0.57,0.065-1.311,0.098-2.222,0.098c-0.944,0-1.718-0.041-2.319-0.122c-0.603-0.082-1.025-0.236-1.27-0.464
		c-0.244-0.228-0.358-0.562-0.342-1.001c0.016-0.439,0.154-1.017,0.415-1.733l21.191-58.691c0.13-0.358,0.301-0.651,0.513-0.879
		c0.211-0.228,0.521-0.407,0.928-0.537c0.406-0.13,0.928-0.22,1.562-0.269s1.44-0.073,2.417-0.073c1.041,0,1.904,0.024,2.588,0.073
		s1.236,0.139,1.66,0.269c0.423,0.13,0.748,0.317,0.977,0.562c0.228,0.244,0.406,0.545,0.537,0.903L338.818,581.44z
		 M311.621,529.634h-0.049l-10.889,31.494h21.973L311.621,529.634z"/>
	<path fill="#444444" d="M370.557,582.954c-0.131,0.358-0.31,0.651-0.537,0.879c-0.229,0.228-0.546,0.407-0.952,0.537
		c-0.407,0.13-0.928,0.22-1.562,0.269s-1.425,0.073-2.368,0.073c-0.717,0-1.343-0.008-1.88-0.024
		c-0.537-0.017-1.001-0.057-1.392-0.122c-0.391-0.065-0.725-0.139-1.001-0.22c-0.277-0.081-0.513-0.187-0.708-0.317
		c-0.195-0.13-0.351-0.285-0.464-0.464c-0.114-0.179-0.22-0.398-0.317-0.659l-20.654-58.691c-0.261-0.716-0.399-1.294-0.415-1.733
		c-0.017-0.439,0.122-0.773,0.415-1.001c0.293-0.228,0.765-0.374,1.416-0.439c0.65-0.065,1.529-0.098,2.637-0.098
		c0.911,0,1.636,0.024,2.173,0.073s0.952,0.139,1.245,0.269c0.293,0.13,0.513,0.301,0.659,0.513c0.146,0.212,0.284,0.48,0.415,0.806
		l18.115,53.174h0.049l17.627-53.076c0.098-0.358,0.211-0.651,0.342-0.879c0.13-0.228,0.357-0.407,0.684-0.537
		c0.325-0.13,0.781-0.22,1.367-0.269s1.367-0.073,2.344-0.073c1.009,0,1.807,0.041,2.393,0.122c0.586,0.082,0.984,0.236,1.196,0.464
		c0.211,0.228,0.293,0.562,0.244,1.001s-0.204,1.018-0.464,1.733L370.557,582.954z"/>
	<path fill="#444444" d="M444.385,581.44c0.26,0.716,0.398,1.294,0.415,1.733c0.016,0.439-0.106,0.773-0.366,1.001
		c-0.261,0.228-0.692,0.374-1.294,0.439c-0.603,0.065-1.408,0.098-2.417,0.098c-1.01,0-1.815-0.024-2.417-0.073
		c-0.603-0.049-1.059-0.13-1.367-0.244c-0.31-0.114-0.537-0.269-0.684-0.464s-0.285-0.439-0.415-0.732l-5.42-15.381h-26.27
		l-5.176,15.186c-0.098,0.293-0.229,0.545-0.391,0.757c-0.163,0.212-0.399,0.391-0.708,0.537c-0.31,0.146-0.749,0.252-1.318,0.317
		c-0.57,0.065-1.311,0.098-2.222,0.098c-0.944,0-1.718-0.041-2.319-0.122c-0.603-0.082-1.025-0.236-1.27-0.464
		c-0.244-0.228-0.358-0.562-0.342-1.001c0.016-0.439,0.154-1.017,0.415-1.733l21.191-58.691c0.13-0.358,0.301-0.651,0.513-0.879
		c0.211-0.228,0.521-0.407,0.928-0.537c0.406-0.13,0.928-0.22,1.562-0.269s1.44-0.073,2.417-0.073c1.041,0,1.904,0.024,2.588,0.073
		s1.236,0.139,1.66,0.269c0.423,0.13,0.748,0.317,0.977,0.562c0.228,0.244,0.406,0.545,0.537,0.903L444.385,581.44z
		 M417.188,529.634h-0.049l-10.889,31.494h21.973L417.188,529.634z"/>
	<path fill="#444444" d="M463.33,583.149c0,0.261-0.065,0.488-0.195,0.684c-0.131,0.195-0.358,0.35-0.684,0.464
		c-0.326,0.114-0.757,0.211-1.294,0.293c-0.537,0.081-1.213,0.122-2.026,0.122c-0.781,0-1.449-0.041-2.002-0.122
		c-0.554-0.082-0.993-0.179-1.318-0.293c-0.326-0.114-0.554-0.269-0.684-0.464c-0.131-0.195-0.195-0.423-0.195-0.684v-60.645
		c0-0.26,0.073-0.488,0.22-0.684s0.391-0.35,0.732-0.464c0.342-0.114,0.781-0.211,1.318-0.293c0.537-0.081,1.18-0.122,1.929-0.122
		c0.813,0,1.489,0.041,2.026,0.122c0.537,0.082,0.968,0.179,1.294,0.293c0.325,0.114,0.553,0.269,0.684,0.464
		c0.13,0.195,0.195,0.423,0.195,0.684V583.149z"/>
	<path fill="#444444" d="M512.891,580.757c0,0.651-0.033,1.196-0.098,1.636c-0.065,0.439-0.171,0.814-0.317,1.123
		c-0.146,0.31-0.326,0.537-0.537,0.684c-0.212,0.146-0.464,0.22-0.757,0.22h-27.93c-0.749,0-1.457-0.252-2.124-0.757
		c-0.668-0.504-1.001-1.392-1.001-2.661v-58.496c0-0.26,0.064-0.488,0.195-0.684c0.13-0.195,0.357-0.35,0.684-0.464
		c0.325-0.114,0.765-0.211,1.318-0.293c0.553-0.081,1.221-0.122,2.002-0.122c0.813,0,1.489,0.041,2.026,0.122
		c0.537,0.082,0.968,0.179,1.294,0.293c0.325,0.114,0.553,0.269,0.684,0.464c0.13,0.195,0.195,0.423,0.195,0.684v54.639h22.656
		c0.293,0,0.545,0.073,0.757,0.22c0.211,0.146,0.391,0.358,0.537,0.635c0.146,0.277,0.252,0.643,0.317,1.099
		C512.857,579.553,512.891,580.106,512.891,580.757z"/>
	<path fill="#444444" d="M569.482,581.44c0.26,0.716,0.398,1.294,0.415,1.733c0.016,0.439-0.106,0.773-0.366,1.001
		c-0.261,0.228-0.692,0.374-1.294,0.439c-0.603,0.065-1.408,0.098-2.417,0.098c-1.01,0-1.815-0.024-2.417-0.073
		c-0.603-0.049-1.059-0.13-1.367-0.244c-0.31-0.114-0.537-0.269-0.684-0.464s-0.285-0.439-0.415-0.732l-5.42-15.381h-26.27
		l-5.176,15.186c-0.098,0.293-0.229,0.545-0.391,0.757c-0.163,0.212-0.399,0.391-0.708,0.537c-0.31,0.146-0.749,0.252-1.318,0.317
		c-0.57,0.065-1.311,0.098-2.222,0.098c-0.944,0-1.718-0.041-2.319-0.122c-0.603-0.082-1.025-0.236-1.27-0.464
		c-0.244-0.228-0.358-0.562-0.342-1.001c0.016-0.439,0.154-1.017,0.415-1.733l21.191-58.691c0.13-0.358,0.301-0.651,0.513-0.879
		c0.211-0.228,0.521-0.407,0.928-0.537c0.406-0.13,0.928-0.22,1.562-0.269s1.44-0.073,2.417-0.073c1.041,0,1.904,0.024,2.588,0.073
		s1.236,0.139,1.66,0.269c0.423,0.13,0.748,0.317,0.977,0.562c0.228,0.244,0.406,0.545,0.537,0.903L569.482,581.44z
		 M542.285,529.634h-0.049l-10.889,31.494h21.973L542.285,529.634z"/>
	<path fill="#444444" d="M621.68,566.304c0,1.986-0.253,3.817-0.757,5.493c-0.505,1.677-1.213,3.182-2.124,4.517
		c-0.912,1.335-2.011,2.507-3.296,3.516c-1.286,1.009-2.734,1.855-4.346,2.539s-3.337,1.196-5.176,1.538
		c-1.84,0.342-3.947,0.513-6.323,0.513h-16.504c-0.749,0-1.457-0.252-2.124-0.757c-0.668-0.504-1.001-1.392-1.001-2.661v-56.348
		c0-1.27,0.333-2.156,1.001-2.661c0.667-0.504,1.375-0.757,2.124-0.757h14.355c3.775,0,6.868,0.358,9.277,1.074
		c2.408,0.716,4.419,1.758,6.03,3.125s2.823,3.044,3.638,5.029c0.813,1.986,1.221,4.232,1.221,6.738c0,1.498-0.18,2.93-0.537,4.297
		c-0.358,1.367-0.888,2.629-1.587,3.784c-0.7,1.156-1.579,2.189-2.637,3.101c-1.059,0.912-2.271,1.66-3.638,2.246
		c1.725,0.326,3.336,0.92,4.834,1.782c1.497,0.863,2.808,1.961,3.931,3.296c1.123,1.335,2.01,2.897,2.661,4.688
		C621.354,562.186,621.68,564.155,621.68,566.304z M609.033,538.032c0-1.53-0.211-2.913-0.633-4.15
		c-0.423-1.237-1.088-2.287-1.998-3.149c-0.909-0.862-2.095-1.521-3.556-1.978c-1.462-0.456-3.394-0.684-5.797-0.684h-8.671v20.459
		h9.548c2.176,0,3.929-0.285,5.261-0.854c1.331-0.569,2.436-1.334,3.312-2.295c0.877-0.96,1.519-2.083,1.925-3.369
		C608.83,540.726,609.033,539.399,609.033,538.032z M612.842,566.792c0-1.888-0.301-3.548-0.901-4.98
		c-0.602-1.432-1.479-2.637-2.632-3.613s-2.6-1.717-4.337-2.222c-1.738-0.504-3.924-0.757-6.554-0.757h-10.039v22.266h12.183
		c1.917,0,3.59-0.228,5.02-0.684c1.429-0.456,2.688-1.131,3.776-2.026c1.088-0.895,1.941-2.01,2.559-3.345
		C612.533,570.096,612.842,568.55,612.842,566.792z"/>
	<path fill="#444444" d="M667.188,580.757c0,0.651-0.033,1.196-0.098,1.636c-0.065,0.439-0.171,0.814-0.317,1.123
		c-0.146,0.31-0.326,0.537-0.537,0.684c-0.212,0.146-0.464,0.22-0.757,0.22h-27.93c-0.749,0-1.457-0.252-2.124-0.757
		c-0.668-0.504-1.001-1.392-1.001-2.661v-58.496c0-0.26,0.064-0.488,0.195-0.684c0.13-0.195,0.357-0.35,0.684-0.464
		c0.325-0.114,0.765-0.211,1.318-0.293c0.553-0.081,1.221-0.122,2.002-0.122c0.813,0,1.489,0.041,2.026,0.122
		c0.537,0.082,0.968,0.179,1.294,0.293c0.325,0.114,0.553,0.269,0.684,0.464c0.13,0.195,0.195,0.423,0.195,0.684v54.639h22.656
		c0.293,0,0.545,0.073,0.757,0.22c0.211,0.146,0.391,0.358,0.537,0.635c0.146,0.277,0.252,0.643,0.317,1.099
		C667.154,579.553,667.188,580.106,667.188,580.757z"/>
	<path fill="#444444" d="M711.621,580.952c0,0.586-0.033,1.099-0.098,1.538c-0.065,0.439-0.18,0.806-0.342,1.099
		c-0.163,0.293-0.351,0.505-0.562,0.635c-0.212,0.13-0.448,0.195-0.708,0.195H679.59c-0.749,0-1.457-0.252-2.124-0.757
		c-0.668-0.504-1.001-1.392-1.001-2.661v-56.348c0-1.27,0.333-2.156,1.001-2.661c0.667-0.504,1.375-0.757,2.124-0.757h29.98
		c0.26,0,0.496,0.065,0.708,0.195c0.211,0.13,0.382,0.342,0.513,0.635c0.13,0.293,0.235,0.659,0.317,1.099
		c0.081,0.439,0.122,0.985,0.122,1.636c0,0.586-0.041,1.099-0.122,1.538c-0.082,0.439-0.188,0.798-0.317,1.074
		c-0.131,0.277-0.302,0.48-0.513,0.61c-0.212,0.13-0.448,0.195-0.708,0.195h-24.707v19.824h21.191c0.26,0,0.496,0.073,0.708,0.22
		c0.211,0.146,0.391,0.35,0.537,0.61c0.146,0.261,0.252,0.619,0.317,1.074c0.064,0.456,0.098,0.993,0.098,1.611
		c0,0.586-0.033,1.091-0.098,1.514c-0.065,0.423-0.171,0.765-0.317,1.025c-0.146,0.261-0.326,0.448-0.537,0.562
		c-0.212,0.114-0.448,0.171-0.708,0.171h-21.191v22.607h25.049c0.26,0,0.496,0.065,0.708,0.195c0.211,0.13,0.398,0.334,0.562,0.61
		c0.162,0.277,0.276,0.635,0.342,1.074C711.588,579.756,711.621,580.301,711.621,580.952z"/>
</g>
</svg>
